<?xml version="1.0" encoding="UTF-8"?>
<!DOCTYPE svg PUBLIC "-//W3C//DTD SVG 1.1//EN" "http://www.w3.org/Graphics/SVG/1.1/DTD/svg11.dtd">
<!-- Creator: CorelDRAW 2021.5 -->
<svg xmlns="http://www.w3.org/2000/svg" xml:space="preserve" width="4.44882in" height="3.14961in" version="1.1" style="shape-rendering:geometricPrecision; text-rendering:geometricPrecision; image-rendering:optimizeQuality; fill-rule:evenodd; clip-rule:evenodd"
viewBox="0 0 4448.82 3149.61"
 xmlns:xlink="http://www.w3.org/1999/xlink"
 xmlns:xodm="http://www.corel.com/coreldraw/odm/2003">
 <defs>
  <style type="text/css">
   <![CDATA[
    .fil2 {fill:#606062}
    .fil1 {fill:#BEBEBE}
    .fil3 {fill:#BEBEBE}
    .fil0 {fill:#FEFEFE;fill-rule:nonzero}
    .fil4 {fill:#A9ABAE;fill-rule:nonzero}
    .fil5 {fill:#A8A8A8;fill-rule:nonzero}
   ]]>
  </style>
 </defs>
 <g id="Layer_x0020_1">
  <metadata id="CorelCorpID_0Corel-Layer"/>
  <g id="_2187378369744">
   <path class="fil0" d="M3297.38 1484.8c-10.49,2.17 -18.92,9.44 -23.8,18.79l2.7 1.31c4.7,-8.61 11.93,-15.14 21.77,-17.18l-0.68 -2.92zm-2160.74 811.93c-4.68,-0.97 -9.32,-2.11 -13.94,-3.3l-0.73 2.91c5.21,1.34 10.37,2.57 15.64,3.67 2.64,8.55 5.64,16.78 9.07,25.04l2.76 -1.16c-3.17,-7.65 -6.02,-15.31 -8.49,-23.22 3.41,0.67 7.09,1.37 10.53,1.81l0.42 -2.97c-4,-0.65 -7.95,-1.31 -11.93,-2.09l-0.47 -1.63 -2.88 0.83 0.03 0.11zm2133.33 -778.05l-0 0.5c0,10.33 4.63,20.46 12.64,27.05l1.92 -2.3c-7.37,-6.38 -11.56,-14.93 -11.56,-24.75l0 -0.41 -3 -0.09zm26.46 34.67c3.02,0.71 5.69,1.11 8.8,1.11 7.25,0 15.2,-2.43 20.95,-6.9l-1.8 -2.4 -0.62 0.45c-5.51,3.83 -11.81,5.85 -18.53,5.85 -2.84,0 -5.31,-0.36 -8.07,-1.01l-0.73 2.91zm39.92 -17.55l1.04 -2.19 0.02 4.19 3 0 0 -16.02 -3 -0.11c-0.41,4.85 -1.55,8.41 -3.72,12.74l2.66 1.39zm1.2 17.22c0.65,7.83 8.37,14 16.07,14 2.75,0 7.07,-1.06 9.19,-2.87l-1.68 -2.49c-2.08,1.53 -4.94,2.36 -7.51,2.36 -6.31,0 -12.57,-5.06 -13.11,-11.44l-2.97 0.44zm32.3 -2.98l-3 0 0 -28.26 3 -0.11 0.17 1.65 -0.17 0.02 0 26.7zm2.54 -11.72c6.04,9.06 14.92,14.65 25.76,15.93l0.35 -2.98c-9.95,-1.17 -18.07,-6.3 -23.6,-14.6l-2.5 1.65zm41.22 14.19c9.78,-3.35 18.19,-11.48 21.58,-21.3l-2.83 -1c-3.57,9.18 -10.34,16.24 -19.76,19.47l1 2.83zm23.52 -36.69c0,-5.83 -3.91,-14.04 -7.49,-18.56 -2.28,-2.87 -5.03,-5.39 -8.08,-7.43l-1.67 2.49c7.83,5.87 11.61,11.11 13.82,20.76 0.14,0.85 0.43,2.2 0.43,3.02l2.98 -0.28zm-30.1 -31.54c-1.72,-0.19 -3.25,-0.35 -5,-0.35 -8.37,0 -17.95,3.38 -23.94,9.37l2.05 2.2c5.48,-5.48 14.22,-8.57 21.89,-8.57 1.6,0 3.02,0.15 4.59,0.32l0.42 -2.97zm-37.18 32.43c0.29,-3.44 0.97,-6.3 2.21,-9.51l-2.2 -0.88 0 -9.46 -3 0 0 19.74 3 0.11zm-1.21 -35.27c-1.99,-5.97 -8.89,-10.09 -15.01,-10.09 -4.84,0 -9,2.03 -12.23,5.59l2.25 1.98c2.65,-2.91 6.01,-4.57 9.98,-4.57 4.98,0 10.62,3.37 12.23,8.21l2.78 -1.13zm-31.24 10.61l3 0 0 24.55 -3 0.11c-0.14,-1.71 -0.38,-3.46 -0.81,-5.13l0.81 -0.2 0 -19.33zm-4.81 4.9c-5.7,-7.83 -16.94,-12.83 -26.49,-13.01l-0.87 -0.01 0 3c9.07,0 19.62,4.46 25.04,11.92l2.32 -1.9zm-1929.09 537.22c-4.71,-3.85 -9.44,-7.65 -14.24,-11.4l-1.83 2.38c4.78,3.72 9.48,7.5 14.17,11.33l1.91 -2.31zm-26.22 -20.48c-8.06,-5.97 -16.27,-11.71 -24.61,-17.28l-1.65 2.5c8.3,5.54 16.48,11.25 24.5,17.19l1.77 -2.42zm-37.24 -25.43c-8.45,-5.33 -17.15,-10.48 -25.9,-15.3l-1.44 2.63c8.7,4.84 17.32,9.91 25.75,15.22l1.59 -2.54zm-39.15 -22.42c-8.91,-4.62 -17.93,-8.97 -27.09,-13.08l-1.21 2.75c9.09,4.05 18.09,8.42 26.93,13l1.37 -2.67zm-40.91 -19.02c-9.29,-3.83 -18.66,-7.31 -28.16,-10.6l-0.97 2.84c9.45,3.27 18.75,6.72 27.99,10.54l1.13 -2.78zm-42.48 -15.22c-9.6,-2.93 -19.29,-5.53 -29.06,-7.83l-0.66 2.93c9.69,2.24 19.35,4.87 28.86,7.77l0.87 -2.87zm-43.78 -10.98c-10.03,-1.93 -19.65,-3.3 -29.72,-4.74l-0.34 2.98c9.49,0.86 20.11,2.89 29.51,4.7l0.55 -2.94zm-44.7 -6.28c-10.07,-0.8 -19.98,-1.25 -30.08,-1.31l0 3c10.02,0.06 19.86,0.5 29.85,1.3l0.23 -2.99zm-45.13 -1.04c-9.81,0.43 -20.34,1.07 -30.04,2.53l0.42 2.97c9.97,-1.24 19.66,-2.05 29.7,-2.5l-0.08 -3zm-44.91 4.83c-9.87,1.74 -19.74,4.06 -29.36,6.85l0.85 2.87c9.5,-2.76 19.31,-5.06 29.05,-6.78l-0.54 -2.95zm-43.72 11.46c-9.28,3.27 -19.04,7.28 -27.78,11.8l1.38 2.66c9.01,-4.44 17.93,-8.29 27.41,-11.63l-1.02 -2.83zm-41.01 19.06c-8.56,5.09 -17.06,11.03 -24.65,17.48l1.96 2.28c7.37,-6.32 15.9,-12.23 24.24,-17.19l-1.55 -2.57zm-35.77 27.74c-7.24,7.4 -13.29,14.91 -18.91,23.61l2.54 1.61c5.45,-8.48 11.48,-15.93 18.53,-23.13l-2.16 -2.08zm-26.3 36.87c-4.43,9.28 -7.57,18.65 -9.58,28.74l2.95 0.55c1.9,-9.76 5.07,-19.05 9.35,-28.02l-2.72 -1.27zm-11.54 43.78c-0.59,10.24 -0.04,20.15 1.81,30.25l2.94 -0.57c-1.81,-9.78 -2.33,-19.57 -1.76,-29.5l-2.99 -0.19zm5.31 45c2.88,9.65 6.67,19.1 11.3,28.04l2.65 -1.39c-4.54,-8.85 -8.24,-18 -11.09,-27.53l-2.87 0.88zm18.7 41.22c5.32,8.65 11.11,16.68 17.48,24.59l2.32 -1.9c-6.28,-7.8 -12.01,-15.76 -17.26,-24.28l-2.54 1.59zm27.29 36.05c6.79,7.44 13.83,14.54 21.26,21.34l2.01 -2.23c-7.37,-6.72 -14.35,-13.79 -21.07,-21.15l-2.2 2.04zm32.56 31.3c7.67,6.43 15.54,12.75 23.65,18.62l1.76 -2.43c-8.05,-5.85 -15.86,-12.1 -23.49,-18.49l-1.91 2.31zm35.9 27.34c8.24,5.67 16.69,11.2 25.26,16.35l1.53 -2.58c-8.52,-5.08 -16.93,-10.62 -25.1,-16.24l-1.69 2.48zm38.27 23.91c8.78,4.93 17.67,9.46 26.77,13.75l1.27 -2.72c-9.04,-4.28 -17.86,-8.77 -26.58,-13.66l-1.46 2.62zm40.55 19.85c9.27,3.91 18.69,7.33 28.27,10.41l0.9 -2.86c-9.5,-3.06 -18.82,-6.44 -28.02,-10.32l-1.15 2.77zm87.23 22.57c10.04,0.94 20.08,1.19 30.16,0.87l-0.11 -3c-9.96,0.32 -19.86,0.07 -29.78,-0.86l-0.27 2.99zm45.24 -0.17c9.82,-1.06 20.18,-2.67 29.73,-5.2l-0.76 -2.91c-9.38,2.5 -19.67,4.09 -29.32,5.13l0.35 2.98zm44.23 -9.39c9.46,-3 19.02,-7.13 27.89,-11.59l-1.36 -2.67c-8.79,4.39 -18.1,8.44 -27.47,11.41l0.94 2.85zm41.09 -18.97c8.65,-5.31 16.73,-11.14 24.46,-17.72l-1.97 -2.27c-7.52,6.47 -15.62,12.26 -24.08,17.45l1.59 2.54zm35.53 -28.02c7.17,-7.28 13.49,-14.85 19.31,-23.25l-2.48 -1.69c-5.7,8.24 -11.96,15.7 -18.98,22.84l2.15 2.09zm27.28 -36.13c4.96,-9.09 8.7,-18.03 11.46,-28.02l-2.9 -0.76c-2.69,9.74 -6.37,18.48 -11.2,27.35l2.64 1.43zm14.26 -43.01c1,-10.35 0.32,-20.42 -3.31,-30.23l-2.8 1.08c3.48,9.33 4.08,19.06 3.13,28.89l2.99 0.26zm-10.84 -43.68c-6.54,-8.35 -15.23,-13.64 -25.14,-17.12l-0.96 2.84c9.39,3.3 17.56,8.24 23.77,16.17l2.33 -1.89zm-40.04 -20.51c-9.98,-1.33 -20.31,-1.04 -30.29,0.15l0.37 2.98c9.76,-1.15 19.8,-1.45 29.56,-0.15l0.36 -2.98zm-45.21 2.57c-9.87,1.98 -19.55,4.72 -29.11,7.84l0.94 2.85c9.46,-3.09 19.02,-5.8 28.78,-7.75l-0.61 -2.94zm-43.31 12.89c-9.44,3.61 -18.55,7.65 -27.54,12.28l1.39 2.66c8.89,-4.57 17.9,-8.57 27.24,-12.14l-1.09 -2.8zm-40.69 19.71c-8.66,5.3 -16.74,11.22 -24.33,17.96l2.03 2.21c7.3,-6.57 15.51,-12.5 23.88,-17.63l-1.58 -2.54zm-35.06 28.67c-6.82,7.72 -12.5,15.76 -17.2,24.94l2.69 1.33c4.6,-8.96 10.13,-16.76 16.79,-24.3l-2.27 -1.97zm-23.18 38.91c-3.37,9.8 -5.28,19.33 -6.16,29.66l2.99 0.23c0.81,-9.99 2.75,-19.45 6.01,-28.93l-2.84 -0.96zm-6.53 44.81c0.24,10.06 1.69,20.16 3.72,30l2.94 -0.63c-2.03,-9.6 -3.42,-19.65 -3.66,-29.46l-3 0.09zm23.61 86.84c4.32,9.09 9,17.93 13.99,26.66l2.6 -1.5c-4.96,-8.65 -9.6,-17.44 -13.88,-26.45l-2.71 1.29zm21.71 39.58c5.27,8.52 10.83,16.9 16.6,25.09l2.45 -1.73c-5.73,-8.17 -11.26,-16.46 -16.51,-24.94l-2.54 1.59zm25.41 37.27c5.79,8.02 12.25,16.03 18.54,23.68l2.31 -1.91c-6.26,-7.63 -12.67,-15.58 -18.44,-23.56l-2.41 1.79zm28.22 35.18c6.09,7.06 13.5,15.86 20.3,22.2l2.13 -2.11c-6.94,-7.2 -13.61,-14.48 -20.16,-22.06l-2.27 1.97zm2133.69 -982.66l-2.12 -2.12 21.21 -21.21 2.12 2.12 -21.21 21.21zm-14.33 -2.12l-2.12 2.12 -21.21 -21.21 2.12 -2.12 21.21 21.21zm4.8 105.24l0.81 29.98 3 -0.07 -0.81 -30 -3 0.09zm1.14 44.97l0.52 29.99 3 -0.05 -0.52 -30 -3 0.06zm0.72 44.98c0,9.98 0.22,20.01 0.3,29.99l3 -0.02c-0.07,-9.99 -0.3,-20.02 -0.3,-30.01l-3 0.04zm0.39 44.99l0.1 29.99 3 0 -0.1 -30.01 -3 0.02zm0.1 44.99c0,9.99 -0.02,20 -0.09,29.99l3 0.02c0.07,-10 0.09,-20.01 0.09,-30.01l-3 0zm-0.18 44.98l-0.27 30 3 0.03 0.27 -30 -3 -0.02zm-0.45 44.99c-0.13,9.78 0.08,20.31 -0.46,29.99l3 0.05c0.54,-9.68 0.32,-20.22 0.46,-30l-3 -0.04zm-0.72 44.98c-0.19,9.99 -0.18,19.85 -1.38,29.79l2.98 0.39c1.23,-10.04 1.22,-20.02 1.4,-30.12l-3 -0.06zm-4.07 44.36c-1.92,8.96 -6.4,19.4 -11,27.33l2.58 1.53c4.74,-8.21 9.34,-18.87 11.33,-28.14l-2.91 -0.72zm-19.41 39.43c-6.27,7.54 -13.67,14.33 -21.91,19.68l1.63 2.52c8.61,-5.72 15.96,-12.31 22.57,-20.26l-2.29 -1.94zm-34.75 27.06c-8.87,4.39 -18.27,7.64 -27.85,10.07l0.7 2.91c9.81,-2.48 19.39,-5.8 28.47,-10.29l-1.31 -2.69zm-42.42 13.04c-9.94,1.51 -19.61,2.33 -29.66,2.45l0.02 3c10.18,-0.13 20.02,-0.95 30.08,-2.48l-0.44 -2.97zm-44.57 2.15c-10.02,-0.56 -19.73,-1.65 -29.62,-3.31l-0.51 2.95c9.97,1.7 19.83,2.78 29.93,3.35l0.2 -2.99zm-44.24 -6.22c-9.67,-2.21 -19.31,-4.93 -28.66,-8.23l-1.01 2.83c8.91,3.39 19.66,6.19 28.98,8.32l0.69 -2.92zm-42.58 -13.56c-9.13,-3.76 -18.16,-8.24 -26.69,-13.21l-1.53 2.58c8.58,5.05 17.85,9.6 27.05,13.39l1.17 -2.76zm-39.22 -21.21c-8.21,-5.7 -15.67,-11.99 -22.59,-19.21l-2.18 2.06c7,7.35 14.7,13.81 23.04,19.6l1.73 -2.45zm-31.98 -30.6c-5.76,-8.17 -10.05,-16.74 -12.39,-26.48l-2.93 0.66c2.41,10.09 6.9,19.07 12.86,27.53l2.46 -1.71zm-14.1 -41.01c0,-9.89 2.49,-19.41 6.61,-28.35l-2.71 -1.28c-4.32,9.14 -6.91,19.49 -6.91,29.62l3 0.02zm13.67 -41.35c5.32,-8.37 11.62,-15.93 19.02,-22.54l-1.99 -2.24c-7.64,6.86 -14.05,14.5 -19.55,23.17l2.52 1.62zm30.68 -31.63c8.11,-5.49 17.18,-9.96 26.43,-13.17l-0.97 -2.84c-9.62,3.41 -18.66,7.79 -27.12,13.52l1.66 2.5zm40.68 -17.21c9.78,-2.12 19.44,-3.18 29.45,-3.22l0 -3c-10.2,0.04 -20.1,1.12 -30.07,3.29l0.62 2.94zm44.28 -2.53c9.87,0.96 19.62,2.84 29.13,5.65l0.86 -2.87c-9.72,-2.86 -19.59,-4.78 -29.68,-5.76l-0.31 2.98zm43.18 10.5c8.75,3.28 18.54,8.45 26.42,13.49l1.63 -2.52c-7.93,-5.12 -18.11,-10.45 -26.94,-13.76l-1.11 2.79zm38.56 22.04c7.86,6.16 15,12.84 21.57,20.37l2.28 -1.96c-6.74,-7.69 -13.93,-14.45 -21.98,-20.76l-1.87 2.35zm30.77 32.02c5.81,8.24 10.63,16.54 14.83,25.71l2.73 -1.24c-4.3,-9.35 -9.17,-17.78 -15.1,-26.19l-2.46 1.72zm20.35 39.5c3.31,9.4 5.58,18.99 7.23,28.81l2.96 -0.47c-1.64,-9.93 -4.02,-19.81 -7.36,-29.31l-2.83 0.98zm9.02 43.58c0.74,9.86 0.92,19.88 0.22,29.75l2.99 0.2c0.68,-10.08 0.53,-20.13 -0.22,-30.19l-2.99 0.24zm-1.17 44.59c-1.22,9.79 -3.04,19.74 -5.41,29.31l2.91 0.72c2.39,-9.68 4.23,-19.76 5.47,-29.65l-2.98 -0.39zm-9.39 43.66c-3.09,9.62 -6.62,18.54 -10.94,27.68l2.69 1.33c4.39,-9.26 7.98,-18.31 11.11,-28.07l-2.85 -0.94zm-17.88 40.85c-5.03,8.7 -10.42,16.79 -16.56,24.75l2.36 1.84c6.2,-8 11.72,-16.31 16.78,-25.07l-2.59 -1.52zm-26.06 36.24c-6.55,7.45 -13.66,14.47 -21.07,21.07l1.98 2.25c7.48,-6.6 14.75,-13.83 21.33,-21.33l-2.24 -1.99zm-32.49 30.66c-7.81,6.18 -15.89,11.97 -24.27,17.35l1.61 2.53c8.44,-5.37 16.67,-11.33 24.52,-17.53l-1.86 -2.35zm-37 25.17c-8.64,5.04 -17.39,9.65 -26.39,14.02l1.31 2.7c9.07,-4.43 17.87,-9.04 26.58,-14.13l-1.5 -2.6zm-39.95 20.28c-9.16,4 -18.36,7.71 -27.74,11.16l1.03 2.82c9.45,-3.51 18.67,-7.2 27.91,-11.23l-1.2 -2.75zm-41.86 16.11c-9.48,3.16 -18.99,6.05 -28.61,8.74l0.8 2.89c9.67,-2.68 19.25,-5.61 28.77,-8.79l-0.95 -2.84zm-43.07 12.57c-9.7,2.43 -19.4,4.65 -29.19,6.67l0.61 2.94c9.82,-2.02 19.57,-4.26 29.3,-6.7l-0.72 -2.91zm-43.87 9.54c-9.85,1.77 -19.64,3.4 -29.54,4.85l0.43 2.97c9.94,-1.44 19.78,-3.09 29.66,-4.87l-0.54 -2.95zm-44.38 6.84c-9.93,1.23 -19.81,2.23 -29.77,3.15l0.25 2.99c10,-0.91 19.93,-1.93 29.89,-3.16l-0.37 -2.98zm-44.7 4.29c-9.84,0.64 -19.99,1.24 -29.85,1.24l-0.02 3c9.94,0 20.15,-0.6 30.07,-1.24l-0.2 -2.99z"/>
   <polygon class="fil1" points="3532.02,1668.16 3548.66,1719.7 3602.81,1719.59 3558.94,1751.35 3575.78,1802.82 3532.02,1770.9 3488.26,1802.82 3505.1,1751.35 3461.22,1719.59 3515.38,1719.7 "/>
   <polygon class="fil1" points="3126.65,291.87 3143.29,343.42 3197.45,343.31 3153.57,375.06 3170.41,426.54 3126.65,394.62 3082.9,426.54 3099.74,375.06 3055.86,343.31 3110.02,343.42 "/>
   <polygon class="fil1" points="557.55,1019.96 574.19,1071.5 628.34,1071.4 584.46,1103.15 601.3,1154.62 557.55,1122.7 513.79,1154.62 530.63,1103.15 486.75,1071.4 540.91,1071.5 "/>
   <path class="fil2" d="M66.49 40.02l1353.42 0c35.35,0 64.26,28.92 64.26,64.26 0,35.35 -28.92,64.26 -64.26,64.26l-436.69 0c-35.35,0 -64.26,28.92 -64.26,64.26 0,35.35 28.92,64.27 64.26,64.27l116.13 0c35.35,0 64.26,28.91 64.26,64.26 0,35.35 -28.92,64.26 -64.26,64.26l-888.85 0c-35.35,0 -64.26,-28.92 -64.26,-64.26 0,-35.35 28.91,-64.26 64.26,-64.26l120.79 0c35.35,0 64.26,-28.92 64.26,-64.27 0,-35.35 -28.92,-64.26 -64.26,-64.26l-264.8 0c-35.35,0 -64.26,-28.92 -64.26,-64.26 0,-35.35 28.92,-64.26 64.26,-64.26zm1585.01 927.87l1121.91 0c67.13,0 122.05,54.92 122.05,122.05l0 1573.51c0,67.13 -54.92,122.05 -122.05,122.05l-1121.91 0c-67.13,0 -122.05,-54.92 -122.05,-122.05l0 -1573.51c0,-67.13 54.92,-122.05 122.05,-122.05zm1821.85 1610.03l924.82 0c24.15,0 43.91,19.76 43.91,43.91 0,24.15 -19.76,43.91 -43.91,43.91l-298.4 0c-24.15,0 -43.91,19.76 -43.91,43.91 0,24.15 19.76,43.91 43.91,43.91l79.36 0c24.15,0 43.91,19.76 43.91,43.91 0,24.15 -19.76,43.91 -43.91,43.91l-607.38 0c-24.15,0 -43.91,-19.76 -43.91,-43.91 0,-24.15 19.76,-43.91 43.91,-43.91l82.54 0c24.15,0 43.91,-19.76 43.91,-43.91 0,-24.15 -19.76,-43.91 -43.91,-43.91l-180.94 0c-24.15,0 -43.91,-19.76 -43.91,-43.91 0,-24.15 19.76,-43.91 43.91,-43.91zm853.93 175.65l7.41 0c24.15,0 43.91,19.76 43.91,43.91 0,24.15 -19.76,43.91 -43.91,43.91l-7.41 0c-24.15,0 -43.91,-19.76 -43.91,-43.91 0,-24.15 19.76,-43.91 43.91,-43.91zm-3011.12 -2456.5l10.84 0c35.35,0 64.26,28.91 64.26,64.26 0,35.35 -28.92,64.26 -64.26,64.26l-10.84 0c-35.35,0 -64.26,-28.92 -64.26,-64.26 0,-35.35 28.92,-64.26 64.26,-64.26z"/>
   <circle class="fil3" cx="969.31" cy="1446.39" r="83.21"/>
   <circle class="fil3" cx="542.86" cy="1758.43" r="41.6"/>
   <path class="fil3" d="M1203.34 671.5c22.98,0 41.61,18.63 41.61,41.6 0,22.98 -18.63,41.61 -41.61,41.61 -22.98,0 -41.6,-18.63 -41.6,-41.61 0,-22.98 18.63,-41.6 41.6,-41.6zm852.9 -390.04c22.98,0 41.61,18.63 41.61,41.6 0,22.98 -18.63,41.61 -41.61,41.61 -22.98,0 -41.6,-18.63 -41.6,-41.61 0,-22.98 18.63,-41.6 41.6,-41.6z"/>
   <circle class="fil3" cx="3413.6" cy="1149.96" r="41.6"/>
   <circle class="fil3" cx="2940.34" cy="687.1" r="41.6"/>
   <path class="fil4" d="M2148.52 593.74c-15.56,0 -28.17,-6.18 -28.17,-13.8 0,-7.62 12.61,-13.8 28.17,-13.8l342.37 0c15.56,0 28.17,6.18 28.17,13.8 0,7.62 -12.61,13.8 -28.17,13.8l-342.37 0zm1203.76 1436.8c-15.56,0 -28.17,-6.18 -28.17,-13.8 0,-7.62 12.61,-13.8 28.17,-13.8l168.85 0c15.56,0 28.17,6.18 28.17,13.8 0,7.62 -12.61,13.8 -28.17,13.8l-168.85 0zm-2983.3 -1364.03c-15.56,0 -28.17,-6.18 -28.17,-13.8 0,-7.62 12.61,-13.8 28.17,-13.8l502.83 0c15.56,0 28.17,6.18 28.17,13.8 0,7.62 -12.61,13.8 -28.17,13.8l-502.83 0zm1595.06 2446.8c-15.56,0 -28.17,-6.18 -28.17,-13.8 0,-7.62 12.61,-13.8 28.17,-13.8l502.83 0c15.56,0 28.17,6.18 28.17,13.8 0,7.62 -12.61,13.8 -28.17,13.8l-502.83 0zm914.98 -217.76c-15.56,0 -28.17,-6.18 -28.17,-13.8 0,-7.62 12.61,-13.8 28.17,-13.8l168.85 0c15.56,0 28.17,6.18 28.17,13.8 0,7.62 -12.61,13.8 -28.17,13.8l-168.85 0zm-2146.2 -55.12c-15.56,0 -28.17,-6.18 -28.17,-13.8 0,-7.62 12.61,-13.8 28.17,-13.8l502.83 0c15.56,0 28.17,6.18 28.17,13.8 0,7.62 -12.61,13.8 -28.17,13.8l-502.83 0zm-376.14 -1623.67c-15.56,0 -28.17,-6.18 -28.17,-13.8 0,-7.62 12.61,-13.8 28.17,-13.8l85.59 0c15.56,0 28.17,6.18 28.17,13.8 0,7.62 -12.61,13.8 -28.17,13.8l-85.59 0zm3552.04 -468.06c-15.56,0 -28.17,-6.18 -28.17,-13.8 0,-7.62 12.61,-13.8 28.17,-13.8l85.59 0c15.56,0 28.17,6.18 28.17,13.8 0,7.62 -12.61,13.8 -28.17,13.8l-85.59 0zm-1327.33 -591.57c-15.56,0 -28.17,-6.18 -28.17,-13.8 0,-7.62 12.61,-13.8 28.17,-13.8l85.59 0c15.56,0 28.17,6.18 28.17,13.8 0,7.62 -12.61,13.8 -28.17,13.8l-85.59 0zm-232.77 0c-15.56,0 -28.17,-6.18 -28.17,-13.8 0,-7.62 12.61,-13.8 28.17,-13.8l171.19 0c15.56,0 28.17,6.18 28.17,13.8 0,7.62 -12.61,13.8 -28.17,13.8l-171.19 0zm-900.5 245.59c-15.56,0 -28.17,-6.18 -28.17,-13.8 0,-7.62 12.61,-13.8 28.17,-13.8l342.37 0c15.56,0 28.17,6.18 28.17,13.8 0,7.62 -12.61,13.8 -28.17,13.8l-342.37 0z"/>
   <path class="fil5" d="M2814.39 1384.73l-398.32 0c-40.64,0 -77.59,-16.62 -104.35,-43.39 -26.77,-26.77 -43.39,-63.71 -43.39,-104.35l0 -333.58 -675.92 0c-32.98,0 -62.97,13.5 -84.72,35.25 -21.74,21.75 -35.25,51.74 -35.25,84.72l0 1549.89c0,32.98 13.5,62.97 35.25,84.72 21.75,21.74 51.74,35.25 84.72,35.25l1102.02 0c32.98,0 62.97,-13.5 84.72,-35.25 21.74,-21.75 35.25,-51.74 35.25,-84.72l0 -1188.53zm-928.45 647.78c-6.7,9.3 -19.67,11.42 -28.97,4.72 -9.3,-6.7 -11.42,-19.67 -4.72,-28.97 33.33,-46.15 76.74,-82.89 126.04,-108.1 49.4,-25.25 104.6,-38.95 161.39,-38.95 56.8,0 111.99,13.7 161.39,38.95 49.3,25.21 92.71,61.96 126.04,108.1 6.7,9.3 4.58,22.28 -4.72,28.97 -9.3,6.7 -22.28,4.58 -28.97,-4.72 -29.42,-40.73 -67.73,-73.17 -111.23,-95.41 -43.41,-22.19 -92.14,-34.23 -142.51,-34.23 -50.37,0 -99.11,12.04 -142.51,34.23 -43.5,22.24 -81.81,54.68 -111.23,95.41zm-169.87 303.56c-11.5,0 -20.83,-9.33 -20.83,-20.83 0,-11.5 9.33,-20.83 20.83,-20.83l671.81 0c11.5,0 20.83,9.33 20.83,20.83 0,11.5 -9.33,20.83 -20.83,20.83l-671.81 0zm0 126.89c-11.5,0 -20.83,-9.33 -20.83,-20.83 0,-11.5 9.33,-20.83 20.83,-20.83l847.22 0c11.5,0 20.83,9.33 20.83,20.83 0,11.5 -9.33,20.83 -20.83,20.83l-847.22 0zm0 126.89c-11.5,0 -20.83,-9.33 -20.83,-20.83 0,-11.5 9.33,-20.83 20.83,-20.83l671.81 0c11.5,0 20.83,9.33 20.83,20.83 0,11.5 -9.33,20.83 -20.83,20.83l-671.81 0zm217.41 -967.26c23.73,0 45.24,9.65 60.83,25.24l0.08 0c15.59,15.59 25.24,37.13 25.24,60.91 0,23.73 -9.65,45.24 -25.24,60.83l-0.08 0.08c-15.59,15.59 -37.11,25.24 -60.83,25.24 -23.78,0 -45.33,-9.65 -60.91,-25.24l-1.19 -1.29c-14.89,-15.49 -24.05,-36.5 -24.05,-59.62 0,-23.78 9.65,-45.33 25.24,-60.91 15.59,-15.59 37.13,-25.24 60.91,-25.24zm31.5 54.65c-8.04,-8.02 -19.18,-12.98 -31.5,-12.98 -12.29,0 -23.41,4.98 -31.46,13.02 -8.04,8.04 -13.02,19.17 -13.02,31.46 0,11.88 4.61,22.65 12.13,30.62l0.89 0.84c8.04,8.04 19.17,13.02 31.46,13.02 12.32,0 23.46,-4.96 31.5,-12.98 8.02,-8.04 12.98,-19.18 12.98,-31.5 0,-12.29 -4.98,-23.41 -13.02,-31.46l0.04 -0.04zm380.92 -54.65c23.78,0 45.33,9.65 60.91,25.24 15.59,15.59 25.24,37.13 25.24,60.91 0,23.73 -9.65,45.24 -25.24,60.83l0 0.08c-15.59,15.59 -37.13,25.24 -60.91,25.24 -23.73,0 -45.24,-9.65 -60.83,-25.24l-0.08 -0.08c-15.59,-15.59 -25.24,-37.11 -25.24,-60.83 0,-23.78 9.65,-45.33 25.24,-60.91l1.29 -1.19c15.49,-14.89 36.5,-24.05 59.62,-24.05zm31.46 54.69c-8.04,-8.04 -19.17,-13.02 -31.46,-13.02 -11.88,0 -22.65,4.61 -30.62,12.13l-0.84 0.89c-8.04,8.04 -13.02,19.17 -13.02,31.46 0,12.32 4.96,23.46 12.98,31.5 8.04,8.02 19.18,12.98 31.5,12.98 12.29,0 23.41,-4.98 31.46,-13.02l0.04 0.04c8.02,-8.04 12.98,-19.18 12.98,-31.5 0,-12.29 -4.98,-23.41 -13.02,-31.46zm-95.13 -801.66l0 0 0.17 0 0 0 0.17 0 0 0 0.17 0 0 0 0.17 0.01 0 0 0.17 0.01 0 0 0.17 0.01 0 0 0.17 0.01 0 0 0.17 0.02 0 0 0.17 0.02 0 0 0.17 0.02 0 0 0.16 0.02 0 0 0.17 0.02 0 0 0.16 0.03 0 0 0.17 0.03 0 0 0.16 0.03 0 0 0.16 0.03 0 0 0.16 0.04 0 0 0.16 0.04 0 0 0.16 0.04 0 0 0.16 0.04 0 0 0.16 0.04 0 0 0.15 0.04 0 0 0.16 0.04 0 0 0.15 0.05 0 0 0.16 0.05 0 0 0.15 0.05 0 0 0.15 0.05 0 0 0.15 0.06 0 0 0.15 0.06 0 0 0.15 0.06 0 0 0.15 0.06 0 0 0.15 0.06 0 0 0.15 0.06 0 0 0.15 0.07 0 0 0.15 0.06 0 0 0.15 0.07 0 0 0.14 0.07 0 0 0.14 0.07 0 0 0.14 0.07 0 0 0.14 0.07 0 0 0.14 0.08 0 0 0.14 0.08 0 0 0.14 0.08 0 0 0.14 0.08 0 0 0.13 0.08 0 0 0.14 0.08 0 0 0.13 0.09 0 0 0.13 0.09 0 0 0.13 0.09 0 0 0.13 0.09 0 0 0.13 0.09 0 0 0.13 0.09 0 0 0.13 0.09 0 0 0.13 0.1 0 0 0.13 0.1 0 0 0.12 0.1 0 0 0.12 0.1 0 0 0.12 0.1 0 0 0.12 0.11 0 0 0.12 0.1 0 0 0.12 0.11 0 0 0.11 0.11 0 0 0.11 0.11 0 0 0.11 0.11 0 0 545.65 480.96 0.15 0.13 0.12 0.11 0.02 0.02 0.14 0.13 0.09 0.09 0.05 0.04 0.13 0.13 0.07 0.07 0.06 0.06 0.63 0.7 0.01 0.01 0.35 0.43 0.09 0.11 0.03 0.04 0.11 0.15 0.07 0.09 0.04 0.06 0.11 0.15 0.05 0.07 0.06 0.08 0.13 0.2 0.07 0.11 0.1 0.16 0.01 0.02 0.08 0.13 0.26 0.46 0.02 0.02 0.25 0.49 0.04 0.09 0.11 0.24 0.03 0.07 0.05 0.1 0.21 0.5 0 0.02 0.12 0.31 0.01 0.01 0.06 0.17 0.04 0.13 0.02 0.04 0.19 0.6 0.03 0.09 0.05 0.18 0.01 0.06 0.08 0.3 0 0.03 0.04 0.15 0.07 0.35 0.03 0.15 0.01 0.02c0.09,0.53 0.16,1.07 0.2,1.61l0 0.02 0.02 0.33 0 0.01 0.01 0.54 0.01 1202.42c0,40.64 -16.62,77.59 -43.39,104.36 -26.77,26.77 -63.72,43.39 -104.36,43.39l-1102.02 0c-40.64,0 -77.59,-16.62 -104.36,-43.39 -26.77,-26.77 -43.39,-63.72 -43.39,-104.36l0 -1549.89c0,-40.64 16.62,-77.59 43.39,-104.36 26.77,-26.77 63.72,-43.39 104.36,-43.39l689.81 0zm133.86 481.33l375.46 0 -495.43 -436.7 0 316.73c0,32.98 13.5,62.97 35.25,84.72 21.74,21.75 51.74,35.25 84.72,35.25z"/>
  </g>
 </g>
</svg>
