<?xml version="1.0" encoding="UTF-8"?>
<!DOCTYPE svg PUBLIC "-//W3C//DTD SVG 1.1//EN" "http://www.w3.org/Graphics/SVG/1.1/DTD/svg11.dtd">
<!-- Creator: CorelDRAW 2021.5 -->
<svg xmlns="http://www.w3.org/2000/svg" xml:space="preserve" width="96px" height="70px" version="1.1" style="shape-rendering:geometricPrecision; text-rendering:geometricPrecision; image-rendering:optimizeQuality; fill-rule:evenodd; clip-rule:evenodd"
viewBox="0 0 96 69.93"
 xmlns:xlink="http://www.w3.org/1999/xlink"
 xmlns:xodm="http://www.corel.com/coreldraw/odm/2003">
 <defs>
  <style type="text/css">
   <![CDATA[
    .fil0 {fill:black;fill-rule:nonzero}
   ]]>
  </style>
 </defs>
 <g id="Layer_x0020_1">
  <metadata id="CorelCorpID_0Corel-Layer"/>
  <g id="_2205092756640">
   <path class="fil0" d="M95.73 69.73c-5.96,-1.98 -11.92,-9.93 -11.92,-18.87l0 -15.89 -36.14 34.78 48.06 -0.02z"/>
   <path class="fil0" d="M29.03 -0.03c8.96,0 16.86,0 25.82,0 16.2,0 29.32,13.12 29.32,29.32 0,3.76 0,7.45 0,11.22 0,16.19 -13.12,29.32 -29.32,29.32 -8.96,0 -16.86,0 -25.82,0 -16.19,0 -29.32,-13.13 -29.32,-29.32 0,-3.77 0,-7.46 0,-11.22 0,-16.2 13.13,-29.32 29.32,-29.32z"/>
  </g>
 </g>
</svg>
