<?xml version="1.0" encoding="UTF-8"?>
<svg height='35' viewBox='0 0 96 70' width='48' xmlns='http://www.w3.org/2000/svg'>
<path class="fil0" d="M95.73 69.73c-5.96,-1.98 -11.92,-9.93 -11.92,-18.87l0 -15.89 -36.14 34.78 48.06 -0.02z"/>
<path class="fil0" d="M29.03 -0.03c8.96,0 16.86,0 25.82,0 16.2,0 29.32,13.12 29.32,29.32 0,3.76 0,7.45 0,11.22 0,16.19 -13.12,29.32 -29.32,29.32 -8.96,0 -16.86,0 -25.82,0 -16.19,0 -29.32,-13.13 -29.32,-29.32 0,-3.77 0,-7.46 0,-11.22 0,-16.2 13.13,-29.32 29.32,-29.32z"/>
</svg>
